<?xml version="1.0" encoding="UTF-8" standalone="no"?>
<svg
   width="150mm"
   height="150mm"
   viewBox="0 0 150 150"
   version="1.1"
   id="svg8"
   inkscape:version="1.1 (c68e22c387, 2021-05-23)"
   sodipodi:docname="scaluxnofont.svg"
   inkscape:export-filename="Z:\scalux.png"
   inkscape:export-xdpi="135.46666"
   inkscape:export-ydpi="135.46666"
   xmlns:inkscape="http://www.inkscape.org/namespaces/inkscape"
   xmlns:sodipodi="http://sodipodi.sourceforge.net/DTD/sodipodi-0.dtd"
   xmlns="http://www.w3.org/2000/svg"
   xmlns:svg="http://www.w3.org/2000/svg"
   xmlns:rdf="http://www.w3.org/1999/02/22-rdf-syntax-ns#"
   xmlns:cc="http://creativecommons.org/ns#"
   xmlns:dc="http://purl.org/dc/elements/1.1/">
  <defs
     id="defs2" />
  <sodipodi:namedview
     id="base"
     pagecolor="#ffffff"
     bordercolor="#666666"
     borderopacity="1.0"
     inkscape:pageopacity="0.0"
     inkscape:pageshadow="2"
     inkscape:zoom="0.88"
     inkscape:cx="30.113636"
     inkscape:cy="211.93182"
     inkscape:document-units="mm"
     inkscape:current-layer="layer1"
     showgrid="false"
     inkscape:window-width="1920"
     inkscape:window-height="1017"
     inkscape:window-x="-8"
     inkscape:window-y="-8"
     inkscape:window-maximized="1"
     inkscape:document-rotation="0"
     inkscape:pagecheckerboard="0"
     showguides="false" />
  <metadata
     id="metadata5">
    <rdf:RDF>
      <cc:Work
         rdf:about="">
        <dc:format>image/svg+xml</dc:format>
        <dc:type
           rdf:resource="http://purl.org/dc/dcmitype/StillImage" />
      </cc:Work>
    </rdf:RDF>
  </metadata>
  <g
     inkscape:label="Layer 1"
     inkscape:groupmode="layer"
     id="layer1"
     transform="translate(0,-147)">
    <path
       style="fill:#000037;fill-opacity:1;stroke-width:0.238888"
       d="m 125.27792,238.0816 c 5.69981,-1.33727 9.61585,-3.38891 13.33832,-6.98801 7.16295,-6.92556 8.4219,-16.91708 3.14789,-24.98301 -1.19553,-1.82842 -4.35605,-5.00629 -6.24078,-6.27504 -1.82797,-1.23053 -4.82095,-2.73161 -6.54266,-3.28133 -1.86895,-0.59674 -1.92157,-0.66392 -1.75655,-2.24269 0.18162,-1.73771 -0.247,-4.96035 -1.00991,-7.59297 -3.24612,-11.2017 -13.86724,-19.76685 -27.234487,-21.96261 -3.493146,-0.57381 -9.372023,-0.56663 -12.640612,0.0154 -5.241715,0.93341 -10.429993,2.98309 -14.637471,5.78264 -2.456092,1.63423 -5.968491,4.95167 -7.87071,7.43385 -1.31816,1.72004 -1.470822,1.84222 -2.233856,1.78789 -3.343443,-0.23809 -7.936384,-0.12196 -9.794292,0.24762 -8.202795,1.63175 -14.76423,6.36928 -18.158309,13.11077 l -0.923067,1.83345 -1.738296,-0.13026 c -2.026149,-0.15185 -6.324233,0.41717 -8.728705,1.15556 -5.081317,1.56042 -9.296667,4.2589 -12.5501253,8.03401 -1.6866534,1.95709 -3.7950525,6.13555 -4.3303845,8.58202 -0.5368122,2.45322 -0.4903248,6.23705 0.1053416,8.57433 0.5885059,2.30916 1.8128348,4.94531 3.1976766,6.88505 1.2777983,1.78979 4.3288276,4.72631 6.1874206,5.95519 3.329799,2.20161 8.158296,3.96519 12.134668,4.43211 0.972424,0.11418 22.999232,0.19025 48.94847,0.16901 47.106008,-0.0385 47.183818,-0.0394 49.330428,-0.543 z"
       id="path841"
       inkscape:connector-curvature="0" />
    <g
       aria-label="NetaScale"
       transform="matrix(0.26458333,0,0,0.26458333,19.201337,97.872792)"
       id="flowRoot856"
       style="font-size:176px;line-height:125%;letter-spacing:0px;word-spacing:0px;fill:#ffffff;stroke-width:1px">
      <path
         d="m 52.318359,395.57594 q 0,-3.95312 -1.03125,-5.67187 -1.03125,-1.71875 -3.179687,-2.40625 l -3.695313,-0.34375 q -0.429687,-0.17188 -0.429687,-0.94532 0,-0.6875 0.171875,-0.94531 0.257812,-0.25781 1.117187,-0.25781 h 15.210938 q 0.34375,0 0.515625,0.34375 0.257812,0.25781 0.257812,0.6875 0,0.42969 -0.257812,0.6875 -0.171875,0.17187 -1.460938,0.6875 -2.664062,1.03125 -3.695312,2.75 -1.03125,1.63281 -1.289063,6.1875 V 514.34157 H 41.232422 L 19.833984,396.60719 v 106.64844 q 0,4.38281 0.945313,6.1875 0.945312,1.71875 3.09375,2.40625 l 3.867187,0.34375 q 0.429688,0.25781 0.429688,1.03125 0,0.6875 -0.257813,0.94531 -0.171875,0.17188 -1.03125,0.17188 H 11.669922 q -0.34375,0 -0.601563,-0.25782 -0.171875,-0.25781 -0.171875,-0.6875 0,-0.42968 0.171875,-0.60156 0.257813,-0.25781 1.546875,-0.77344 2.664063,-1.03125 3.609375,-2.66406 1.03125,-1.63281 1.289063,-6.35937 V 387.24 h -4.8125 q -0.429688,0 -0.773438,-0.25781 -0.257812,-0.34375 -0.257812,-0.85937 0,-0.42969 0.257812,-0.6875 0.34375,-0.34375 0.773438,-0.34375 h 22.257812 l 17.359375,94.44531 z"
         style="font-family:Onyx;-inkscape-font-specification:Onyx"
         id="path3237" />
      <path
         d="m 81.193359,468.53688 v 31.96875 q 0,7.47656 1.71875,9.88281 1.289063,1.80469 4.210938,1.80469 4.8125,0 8.59375,-5.41406 6.273433,-9.10938 6.703123,-24.83594 0.0859,-5.15625 0.42969,-5.84375 0.42969,-0.6875 1.11719,-0.6875 0.60156,0 0.94531,0.51562 0.42969,0.6875 0.42969,3.26563 0,15.29687 -5.414066,25.78125 -5.328125,10.39844 -14.4375,10.39844 -8.507812,0 -14.09375,-7.99219 Q 65.810547,499.3025 65.810547,472.49 v -12.63281 q 0,-20.53906 7.5625,-31.19531 5.414062,-7.5625 13.0625,-7.5625 9.109375,0 14.007813,9.71094 4.98437,9.71093 4.98437,23.63281 v 14.09375 z m 8.9375,-2.32031 v -36.60938 q 0,-3.52344 -1.375,-5.32812 -0.945312,-1.28907 -2.835937,-1.28907 -1.890625,0 -3.351563,1.63282 -1.375,1.63281 -1.375,4.98437 v 36.60938 z"
         style="font-family:Onyx;-inkscape-font-specification:Onyx"
         id="path3239" />
      <path
         d="m 116.85742,424.365 h -4.03906 q -0.77344,0 -1.20313,-0.34375 -0.42968,-0.34375 -0.42968,-0.85937 0,-0.60156 0.77343,-1.28906 7.21875,-5.58594 10.48438,-11.08594 3.26562,-5.58594 5.75781,-12.97656 1.80469,-5.32813 1.89063,-7.39063 l 0.17187,-3.95312 q 0.25781,-0.42969 0.77344,-0.42969 0.51562,0 0.77344,0.25781 0.34375,0.25781 0.34375,0.6875 v 35.14844 h 12.80468 q 0.6875,0 1.03125,0.34375 0.42969,0.34375 0.42969,0.77344 0,0.51562 -0.34375,0.77343 -0.42969,0.34375 -1.11719,0.34375 H 132.1543 v 80.00782 q 0,3.69531 1.03125,5.07031 0.6875,1.03125 2.0625,1.03125 2.92187,0 5.15625,-3.35156 3.35156,-4.98438 3.35156,-15.29688 v -12.54687 q 0,-1.20313 0.51562,-1.89063 0.34375,-0.42969 0.85938,-0.42969 0.51562,0 0.85937,0.42969 0.51563,0.6875 0.51563,1.89063 v 9.53906 q 0,14.52344 -4.64063,20.53906 -4.55468,6.01563 -11.42968,6.01563 -6.44532,0 -9.45313,-3.52344 -4.125,-4.72656 -4.125,-13.40625 z"
         style="font-family:Onyx;-inkscape-font-specification:Onyx"
         id="path3241" />
      <path
         d="m 156.30273,431.24 q 1.20313,-0.42968 2.32032,-0.60156 1.11718,-0.25781 2.0625,-0.25781 3.4375,0 5.75781,2.49219 2.40625,2.49218 2.40625,6.53125 0,4.125 -2.40625,6.61718 -2.40625,2.49219 -6.44531,2.49219 -4.03907,0 -6.35938,-2.49219 -2.32031,-2.57812 -2.32031,-7.5625 0,-7.39062 5.58594,-12.375 5.58593,-4.98437 15.89843,-4.98437 9.28125,0 13.32032,3.52344 4.125,3.4375 4.125,8.85156 v 74.25 q 0,1.28906 0.6875,2.14844 0.6875,0.77343 1.46093,0.77343 2.14844,0 4.38282,-4.55468 0.60156,-1.375 1.20312,-1.375 l 1.03125,0.94531 q 0,3.00781 -3.86719,6.35937 -3.86718,3.35157 -9.28125,3.35157 -4.64062,0 -7.21875,-2.14844 -2.49218,-2.14844 -3.78125,-7.5625 -3.95312,5.84375 -6.96093,7.82031 -2.92188,1.89063 -6.96094,1.89063 -4.89844,0 -7.5625,-2.49219 -2.57813,-2.57813 -2.57813,-6.70313 v -32.39843 q 0,-5.24219 2.23438,-7.73438 2.32031,-2.49219 13.49219,-6.1875 4.98437,-1.71875 8.33593,-3.4375 v -24.75 q 0,-3.86719 -2.0625,-6.01562 -1.97656,-2.14844 -5.24218,-2.14844 -7.5625,0 -11.25782,7.73437 z m 18.5625,27.84375 q -5.5,2.14844 -7.13281,4.29688 -1.54687,2.14844 -1.54687,6.875 v 36.35156 q 0,1.80469 0.60156,2.66406 0.6875,0.85938 1.63281,0.85938 1.375,0 3.09375,-2.92188 3.35156,-5.41406 3.35156,-13.0625 z"
         style="font-family:Onyx;-inkscape-font-specification:Onyx"
         id="path3243" />
      <path
         d="m 211.47461,506.865 q -2.92188,2.0625 -6.01563,5.15625 -3.00781,3.00782 -3.69531,3.00782 -0.25781,0 -0.42969,-0.25782 -0.17187,-0.25781 -0.17187,-1.11718 v -53.96875 q 0,-0.34375 0.17187,-0.51563 0.25782,-0.25781 0.51563,-0.25781 0.42969,0 0.77344,0.51562 0.60156,0.77344 0.60156,1.71875 v 3.69532 q 0,10.74218 3.35156,24.49218 3.35156,13.75 8.76563,19.59375 2.66406,2.92188 6.1875,2.92188 4.03906,0 7.04687,-3.78125 3.00781,-3.86719 3.00781,-11.60156 0,-7.39063 -2.75,-15.64063 -3.60937,-11 -15.98437,-35.23437 -7.73438,-15.125 -9.88281,-21.82813 -2.0625,-6.78906 -2.0625,-13.14844 0,-12.63281 5.92968,-19.76562 6.01563,-7.13281 13.66407,-7.13281 6.53125,0 11.77343,6.96093 4.29688,-2.32031 8.33594,-5.75781 1.375,-1.20312 1.80469,-1.20312 0.17187,0 0.34375,0.17187 0.17187,0.34375 0.17187,1.20313 v 46.66406 q 0,0.94531 -0.42968,1.54687 -0.25782,0.34375 -0.6875,0.34375 -0.51563,0 -0.77344,-0.42968 -0.25781,-0.42969 -1.03125,-6.1875 -3.52344,-26.72657 -9.36719,-35.40625 -3.4375,-4.98438 -7.82031,-4.98438 -3.26563,0 -5.67188,2.92188 -2.40625,2.92187 -2.40625,8.59375 0,10.22656 11.6875,33.60156 l 7.5625,15.21094 q 7.82032,15.72656 10.39844,25.00781 2.57813,9.19531 2.57813,16.5 0,12.71875 -6.27344,19.9375 -6.27344,7.21875 -14.69531,7.21875 -9.10938,0 -14.52344,-8.76563 z"
         style="font-family:Onyx;-inkscape-font-specification:Onyx"
         id="path3245" />
      <path
         d="m 282.0293,428.06032 q 2.57812,-2.0625 4.55468,-4.46875 1.97657,-2.49219 2.66407,-2.49219 l 0.42968,0.17187 0.17188,0.85938 v 36.78125 q 0,0.60156 -0.34375,0.94531 -0.34375,0.34375 -0.77344,0.34375 -0.60156,0 -0.85937,-0.42969 -0.17188,-0.34375 -0.51563,-4.21093 -0.51562,-6.44532 -3.35156,-16.32813 -2.83594,-9.96875 -5.67188,-12.97656 -2.75,-3.09375 -5.92968,-3.09375 -2.0625,0 -2.92188,1.11719 -0.85937,1.03125 -0.85937,4.55468 v 75.79688 q 0,4.64062 1.375,6.44531 1.375,1.71875 3.78125,1.71875 3.09375,0 5.92968,-2.49219 2.83594,-2.57812 4.46875,-7.47656 3.4375,-9.96875 3.4375,-22.94531 v -4.8125 q 0,-1.20313 0.42969,-1.80469 l 0.6875,-0.51562 q 0.42969,0 0.6875,0.51562 0.42969,0.60156 0.42969,1.80469 V 480.74 q 0,19.16407 -6.35938,28.27344 -4.46875,6.35938 -11.34375,6.35938 -7.5625,0 -12.375,-6.875 -6.27343,-9.02344 -6.27343,-31.45313 v -16.41406 q 0,-22.34375 6.875,-32.57031 4.72656,-6.96094 11.6875,-6.96094 6.01562,0 9.96875,6.96094 z"
         style="font-family:Onyx;-inkscape-font-specification:Onyx"
         id="path3247" />
      <path
         d="m 301.10742,431.24 q 1.20313,-0.42968 2.32031,-0.60156 1.11719,-0.25781 2.0625,-0.25781 3.4375,0 5.75782,2.49219 2.40625,2.49218 2.40625,6.53125 0,4.125 -2.40625,6.61718 -2.40625,2.49219 -6.44532,2.49219 -4.03906,0 -6.35937,-2.49219 -2.32031,-2.57812 -2.32031,-7.5625 0,-7.39062 5.58593,-12.375 5.58594,-4.98437 15.89844,-4.98437 9.28125,0 13.32031,3.52344 4.125,3.4375 4.125,8.85156 v 74.25 q 0,1.28906 0.6875,2.14844 0.6875,0.77343 1.46094,0.77343 2.14844,0 4.38281,-4.55468 0.60157,-1.375 1.20313,-1.375 l 1.03125,0.94531 q 0,3.00781 -3.86719,6.35937 -3.86719,3.35157 -9.28125,3.35157 -4.64062,0 -7.21875,-2.14844 -2.49219,-2.14844 -3.78125,-7.5625 -3.95312,5.84375 -6.96094,7.82031 -2.92187,1.89063 -6.96093,1.89063 -4.89844,0 -7.5625,-2.49219 -2.57813,-2.57813 -2.57813,-6.70313 v -32.39843 q 0,-5.24219 2.23438,-7.73438 2.32031,-2.49219 13.49218,-6.1875 4.98438,-1.71875 8.33594,-3.4375 v -24.75 q 0,-3.86719 -2.0625,-6.01562 -1.97656,-2.14844 -5.24219,-2.14844 -7.5625,0 -11.25781,7.73437 z m 18.5625,27.84375 q -5.5,2.14844 -7.13281,4.29688 -1.54688,2.14844 -1.54688,6.875 v 36.35156 q 0,1.80469 0.60157,2.66406 0.6875,0.85938 1.63281,0.85938 1.375,0 3.09375,-2.92188 3.35156,-5.41406 3.35156,-13.0625 z"
         style="font-family:Onyx;-inkscape-font-specification:Onyx"
         id="path3249" />
      <path
         d="m 364.78711,385.09157 v 127.01562 h 3.35156 q 0.42969,0 0.6875,0.34375 0.34375,0.25781 0.34375,0.77344 0,0.51562 -0.34375,0.85937 -0.25781,0.25782 -0.6875,0.25782 h -22.42969 q -0.42968,0 -0.77343,-0.25782 -0.25782,-0.34375 -0.25782,-0.85937 0,-0.51563 0.25782,-0.77344 0.34375,-0.34375 0.77343,-0.34375 h 3.60938 V 387.24 h -3.60938 q -0.51562,0 -0.85937,-0.25781 -0.34375,-0.34375 -0.34375,-0.77344 0,-0.51562 0.34375,-0.77343 0.34375,-0.34375 0.85937,-0.34375 z"
         style="font-family:Onyx;-inkscape-font-specification:Onyx"
         id="path3251" />
      <path
         d="m 390.6543,468.53688 v 31.96875 q 0,7.47656 1.71875,9.88281 1.28906,1.80469 4.21093,1.80469 4.8125,0 8.59375,-5.41406 6.27344,-9.10938 6.70313,-24.83594 0.0859,-5.15625 0.42969,-5.84375 0.42968,-0.6875 1.11718,-0.6875 0.60157,0 0.94532,0.51562 0.42968,0.6875 0.42968,3.26563 0,15.29687 -5.41406,25.78125 -5.32812,10.39844 -14.4375,10.39844 -8.50781,0 -14.09375,-7.99219 -5.58594,-8.07813 -5.58594,-34.89063 v -12.63281 q 0,-20.53906 7.5625,-31.19531 5.41407,-7.5625 13.0625,-7.5625 9.10938,0 14.00782,9.71094 4.98437,9.71093 4.98437,23.63281 v 14.09375 z m 8.9375,-2.32031 v -36.60938 q 0,-3.52344 -1.375,-5.32812 -0.94532,-1.28907 -2.83594,-1.28907 -1.89063,0 -3.35156,1.63282 -1.375,1.63281 -1.375,4.98437 v 36.60938 z"
         style="font-family:Onyx;-inkscape-font-specification:Onyx"
         id="path3253" />
    </g>
    <g
       aria-label="SCAL/UX"
       id="text876"
       style="font-size:38.8056px;line-height:125%;letter-spacing:0px;word-spacing:0px;stroke-width:0.264583px">
      <path
         d="m 37.189172,277.73714 q -0.644234,0.45475 -1.326364,1.13688 -0.663181,0.66318 -0.814766,0.66318 -0.05684,0 -0.09474,-0.0568 -0.0379,-0.0568 -0.0379,-0.24632 v -11.89938 q 0,-0.0758 0.0379,-0.11369 0.05684,-0.0568 0.113688,-0.0568 0.09474,0 0.170533,0.11369 0.132636,0.17053 0.132636,0.37896 v 0.81477 q 0,2.3685 0.738974,5.40019 0.738974,3.03169 1.932701,4.32015 0.587389,0.64424 1.364259,0.64424 0.890558,0 1.55374,-0.83372 0.663181,-0.85266 0.663181,-2.55798 0,-1.62954 -0.606337,-3.44855 -0.795818,-2.42535 -3.524337,-7.7687 -1.705324,-3.33485 -2.179025,-4.8128 -0.454753,-1.4969 -0.454753,-2.89905 0,-2.78536 1.307415,-4.35805 1.326363,-1.57269 3.01274,-1.57269 1.440051,0 2.595882,1.53479 0.947402,-0.5116 1.83796,-1.26952 0.303169,-0.26527 0.397909,-0.26527 0.0379,0 0.07579,0.0379 0.0379,0.0758 0.0379,0.26527 v 10.28879 q 0,0.20843 -0.09474,0.34106 -0.05684,0.0758 -0.151584,0.0758 -0.113688,0 -0.170532,-0.0947 -0.05684,-0.0947 -0.227377,-1.36426 -0.77687,-5.89284 -2.065337,-7.80659 -0.757922,-1.09899 -1.724272,-1.09899 -0.720026,0 -1.250571,0.64424 -0.530546,0.64423 -0.530546,1.8948 0,2.25482 2.576935,7.40869 l 1.667428,3.3538 q 1.724272,3.46749 2.292713,5.51388 0.568442,2.02744 0.568442,3.63803 0,2.80431 -1.383208,4.39594 -1.383207,1.59164 -3.240116,1.59164 -2.008492,0 -3.202219,-1.9327 z"
         style="font-family:Onyx;-inkscape-font-specification:Onyx"
         id="path3222" />
      <path
         d="m 55.720361,250.67933 v 11.23619 q 0,0.13264 -0.07579,0.22738 -0.07579,0.0758 -0.189481,0.0758 -0.113688,0 -0.18948,-0.0758 -0.07579,-0.0947 -0.07579,-0.22738 v -1.00425 q 0,-2.38745 -0.549494,-4.79385 -0.701077,-3.14538 -1.9327,-4.47174 -0.473702,-0.5116 -1.231623,-0.5116 -0.511598,0 -0.814766,0.39791 -0.397909,0.49265 -0.397909,1.51585 v 24.32929 q 0,0.9095 0.341064,1.32636 0.360013,0.39791 0.947403,0.39791 0.757922,0 1.55374,-0.66318 0.795817,-0.68213 1.212675,-1.81901 0.87161,-2.31167 0.87161,-5.17282 v -3.12643 q 0,-0.18948 0.07579,-0.28422 0.07579,-0.0947 0.18948,-0.0947 0.09474,0 0.151585,0.0758 0.113688,0.13264 0.113688,0.30317 v 3.12643 q 0,4.41489 -1.629532,6.63181 -1.155831,1.59164 -2.917999,1.59164 -1.307415,0 -2.273766,-0.81477 -0.96635,-0.83371 -1.572688,-2.82325 -1.117934,-3.73277 -1.117934,-9.00033 v -3.25906 q 0,-3.78961 0.644233,-7.18131 0.663182,-3.41065 2.141129,-4.96439 1.004247,-1.04214 2.273766,-1.04214 1.515844,0 2.728519,2.08428 l 1.515843,-1.98954 z"
         style="font-family:Onyx;-inkscape-font-specification:Onyx"
         id="path3224" />
      <path
         d="m 61.442672,251.28567 h 2.103233 l 3.372752,27.6073 h 0.852662 q 0.208429,0.13264 0.208429,0.24633 0,0.11368 -0.208429,0.24632 h -5.703362 q -0.09474,0 -0.151584,-0.0568 -0.05684,-0.0758 -0.05684,-0.18948 0,-0.11369 0.05684,-0.17054 0.05684,-0.0758 0.151584,-0.0758 h 0.909506 l -0.492649,-5.38124 h -3.429596 l -0.416857,3.05063 q -0.01895,0.24633 -0.01895,0.5116 0,0.83371 0.303168,1.26952 0.322117,0.41685 0.871611,0.51159 l 0.303168,0.0947 q 0.07579,0.0758 0.07579,0.18948 0,0.11368 -0.07579,0.18948 -0.05684,0.0568 -0.151584,0.0568 H 56.70566 q -0.09474,0 -0.170532,-0.0568 -0.05685,-0.0758 -0.05685,-0.18948 0,-0.11369 0.05685,-0.18948 l 0.227376,-0.0758 q 0.549493,-0.0758 0.852662,-0.49265 0.454753,-0.66318 0.644234,-2.19797 z m -0.473702,7.06762 -1.856908,14.66579 h 3.315908 z"
         style="font-family:Onyx;-inkscape-font-specification:Onyx"
         id="path3226" />
      <path
         d="m 69.855604,251.36146 h -1.174779 q -0.208429,-0.13264 -0.208429,-0.22738 0,-0.11369 0.208429,-0.24632 h 6.309699 q 0.09474,0 0.151585,0.0758 0.07579,0.0568 0.07579,0.15158 0,0.11369 -0.07579,0.18949 -0.05685,0.0568 -0.151585,0.0568 h -1.250571 v 27.53151 h 0.795818 q 0.852662,0 1.496896,-0.4737 0.644233,-0.49265 1.250571,-2.00849 0.890558,-2.23587 1.288467,-4.86965 0.416857,-2.65273 0.435805,-3.3917 0.01895,-0.26527 0.07579,-0.34107 l 0.151585,-0.0568 0.151584,0.0568 q 0.07579,0.0758 0.07579,0.17054 l -0.151584,11.40672 H 68.680825 q -0.09474,0 -0.170533,-0.0568 -0.05684,-0.0758 -0.05684,-0.18948 0,-0.11369 0.05684,-0.17054 0.07579,-0.0758 0.170533,-0.0758 h 1.174779 z"
         style="font-family:Onyx;-inkscape-font-specification:Onyx"
         id="path3228" />
      <path
         d="M 87.382548,250.64143 H 88.32995 L 81.508653,279.613 h -0.985298 z"
         style="font-family:Onyx;-inkscape-font-specification:Onyx"
         id="path3230" />
      <path
         d="m 90.546871,251.38041 h -1.117935 q -0.208429,-0.15159 -0.208429,-0.24633 0,-0.11369 0.208429,-0.24632 h 6.082323 q 0.09474,0 0.151584,0.0758 0.05684,0.0568 0.05684,0.15158 0,0.13264 -0.05684,0.20843 -0.05684,0.0569 -0.151584,0.0569 h -1.061091 v 26.07251 q 0,0.79582 0.435805,1.23162 0.435805,0.43581 1.174779,0.43581 1.345311,0 2.216922,-1.06109 0.890558,-1.08004 0.890558,-3.3917 v -20.8618 q 0,-1.42111 -0.246325,-1.80007 -0.227376,-0.39791 -0.890558,-0.54949 -0.341065,-0.0758 -0.454753,-0.17053 -0.09474,-0.11369 -0.09474,-0.22738 l 0.0379,-0.13264 0.151584,-0.0379 h 2.993794 q 0.11369,0 0.28422,0.20843 0,0.0947 -0.0947,0.17053 -0.0758,0.0758 -0.28422,0.11369 -0.37896,0.0568 -0.587392,0.4358 -0.360013,0.60634 -0.360013,1.98955 v 21.39234 q 0,2.19798 -1.136883,3.33486 -1.117935,1.13688 -3.240116,1.13688 -2.671674,0 -3.865401,-1.36426 -0.833714,-0.96635 -0.833714,-3.63802 z"
         style="font-family:Onyx;-inkscape-font-specification:Onyx"
         id="path3232" />
      <path
         d="m 103.10942,251.38041 h -0.89055 q -0.0947,0 -0.17054,-0.0569 -0.0568,-0.0758 -0.0568,-0.18948 0,-0.11369 0.0568,-0.17053 0.0758,-0.0758 0.17054,-0.0758 h 6.34759 q 0.0947,0 0.15159,0.0758 0.0758,0.0568 0.0758,0.17053 0,0.11369 -0.0758,0.18948 -0.0569,0.0569 -0.15159,0.0569 h -1.51584 l 2.59588,10.15615 2.33061,-7.50343 q 0.18948,-0.64423 0.18948,-1.17477 0,-0.66319 -0.22738,-0.9853 -0.20842,-0.34107 -0.68213,-0.43581 l -0.87161,-0.0758 q -0.11368,-0.0568 -0.11368,-0.22738 0,-0.11369 0.20843,-0.24632 h 4.26331 q 0.20842,0.13263 0.20842,0.24632 0,0.15159 -0.0947,0.20843 l -0.58739,0.0568 q -0.45475,0.13263 -0.9095,0.64423 -0.43581,0.49265 -0.64424,1.11793 l -2.86115,9.20875 4.20647,16.5227 h 0.87161 q 0.20842,0.13264 0.20842,0.24633 0,0.11368 -0.0568,0.18948 -0.0568,0.0568 -0.15158,0.0568 h -6.06338 q -0.0947,0 -0.17053,-0.0568 -0.0568,-0.0758 -0.0568,-0.18948 0,-0.11369 0.0568,-0.17054 0.0758,-0.0758 0.17053,-0.0758 h 1.30742 l -2.88011,-11.33093 -2.67167,8.73505 q -0.17053,0.54949 -0.17053,1.17478 0,0.58739 0.36001,0.92845 0.53054,0.49265 1.02319,0.49265 h 0.49265 q 0.0947,0 0.15159,0.0758 0.0758,0.0568 0.0758,0.17054 0,0.11368 -0.0758,0.18948 -0.0568,0.0568 -0.15159,0.0568 h -4.47174 q -0.20842,-0.13264 -0.20842,-0.24632 0,-0.11369 0.0379,-0.17054 0.0568,-0.0568 0.17053,-0.0758 1.57269,-0.28422 2.33061,-2.76641 l 2.86116,-9.45508 z"
         style="font-family:Onyx;-inkscape-font-specification:Onyx"
         id="path3234" />
    </g>
    <path
       id="rect1904"
       style="stroke-width:4.23333"
       d="M 5.079495,243.564 H 144.9205 v 1.4882 H 5.079495 Z" />
  </g>
</svg>
